<mxfile host="app.diagrams.net" agent="Mozilla/5.0 (Windows NT 10.0; Win64; x64) AppleWebKit/537.36 (KHTML, like Gecko) Chrome/116.0.5845.97 Safari/537.36 Core/1.116.427.400 QQBrowser/13.0.6051.400" version="24.7.14">
  <diagram name="第 1 页" id="ZIVPGifISALPWk9GmcuV">
    <mxGraphModel dx="945" dy="586" grid="1" gridSize="10" guides="1" tooltips="1" connect="1" arrows="1" fold="1" page="1" pageScale="1" pageWidth="827" pageHeight="1169" math="0" shadow="0">
      <root>
        <mxCell id="0" />
        <mxCell id="1" parent="0" />
        <mxCell id="gaEPA1DES-zL0HLCs2Ym-5" value="&lt;font face=&quot;Times New Roman&quot;&gt;CNN&lt;/font&gt;" style="verticalLabelPosition=middle;verticalAlign=middle;html=1;shape=trapezoid;perimeter=trapezoidPerimeter;whiteSpace=wrap;size=0.10714285714285714;arcSize=10;flipV=1;labelPosition=center;align=center;direction=south;fillColor=#dae8fc;strokeColor=#6c8ebf;" vertex="1" parent="1">
          <mxGeometry x="164" y="135" width="50" height="85" as="geometry" />
        </mxCell>
        <mxCell id="gaEPA1DES-zL0HLCs2Ym-10" value="&lt;font face=&quot;Times New Roman&quot;&gt;CNN&lt;/font&gt;" style="rounded=1;whiteSpace=wrap;html=1;fillColor=#e1d5e7;strokeColor=#9673a6;" vertex="1" parent="1">
          <mxGeometry x="372" y="160" width="60" height="40" as="geometry" />
        </mxCell>
        <mxCell id="gaEPA1DES-zL0HLCs2Ym-11" value="" style="shape=cube;whiteSpace=wrap;html=1;boundedLbl=1;backgroundOutline=1;darkOpacity=0.05;darkOpacity2=0.1;size=40;fillColor=#d5e8d4;strokeColor=#82b366;" vertex="1" parent="1">
          <mxGeometry x="491" y="150" width="60" height="60" as="geometry" />
        </mxCell>
        <mxCell id="gaEPA1DES-zL0HLCs2Ym-21" value="" style="shape=cube;whiteSpace=wrap;html=1;boundedLbl=1;backgroundOutline=1;darkOpacity=0.05;darkOpacity2=0.1;fillColor=#d5e8d4;strokeColor=#82b366;" vertex="1" parent="1">
          <mxGeometry x="48" y="150" width="50" height="50" as="geometry" />
        </mxCell>
        <mxCell id="gaEPA1DES-zL0HLCs2Ym-23" value="" style="shape=cube;whiteSpace=wrap;html=1;boundedLbl=1;backgroundOutline=1;darkOpacity=0.05;darkOpacity2=0.1;fillColor=#d5e8d4;strokeColor=#82b366;" vertex="1" parent="1">
          <mxGeometry x="273" y="160" width="40" height="40" as="geometry" />
        </mxCell>
        <mxCell id="gaEPA1DES-zL0HLCs2Ym-33" value="" style="shape=cube;whiteSpace=wrap;html=1;boundedLbl=1;backgroundOutline=1;darkOpacity=0.05;darkOpacity2=0.1;size=40;fillColor=#d5e8d4;strokeColor=#82b366;" vertex="1" parent="1">
          <mxGeometry x="752" y="150" width="70" height="70" as="geometry" />
        </mxCell>
        <mxCell id="gaEPA1DES-zL0HLCs2Ym-34" value="&lt;font face=&quot;Times New Roman&quot;&gt;CNN&lt;/font&gt;" style="verticalLabelPosition=middle;verticalAlign=middle;html=1;shape=trapezoid;perimeter=trapezoidPerimeter;whiteSpace=wrap;size=0.10714285714285714;arcSize=10;flipV=1;labelPosition=center;align=center;direction=north;fillColor=#dae8fc;strokeColor=#6c8ebf;" vertex="1" parent="1">
          <mxGeometry x="621" y="50" width="50" height="85" as="geometry" />
        </mxCell>
        <mxCell id="gaEPA1DES-zL0HLCs2Ym-35" value="&lt;font face=&quot;Times New Roman&quot;&gt;(Translator)&lt;/font&gt;" style="text;html=1;align=center;verticalAlign=middle;resizable=0;points=[];autosize=1;strokeColor=none;fillColor=none;" vertex="1" parent="1">
          <mxGeometry x="360" y="199" width="80" height="30" as="geometry" />
        </mxCell>
        <mxCell id="gaEPA1DES-zL0HLCs2Ym-36" value="&lt;font face=&quot;Times New Roman&quot;&gt;(Encoder)&lt;/font&gt;" style="text;html=1;align=center;verticalAlign=middle;resizable=0;points=[];autosize=1;strokeColor=none;fillColor=none;" vertex="1" parent="1">
          <mxGeometry x="191" y="220" width="70" height="30" as="geometry" />
        </mxCell>
        <mxCell id="gaEPA1DES-zL0HLCs2Ym-41" value="&lt;font color=&quot;#7ea6e0&quot; face=&quot;Times New Roman&quot;&gt;Spatial features&lt;/font&gt;" style="text;html=1;align=center;verticalAlign=middle;resizable=0;points=[];autosize=1;strokeColor=none;fillColor=none;" vertex="1" parent="1">
          <mxGeometry x="350" y="250" width="100" height="30" as="geometry" />
        </mxCell>
        <mxCell id="gaEPA1DES-zL0HLCs2Ym-48" value="" style="rounded=1;whiteSpace=wrap;html=1;opacity=20;fillColor=#1ba1e2;strokeColor=#006EAF;fontColor=#ffffff;" vertex="1" parent="1">
          <mxGeometry x="130" y="30" width="594" height="310" as="geometry" />
        </mxCell>
        <mxCell id="gaEPA1DES-zL0HLCs2Ym-49" value="&lt;font color=&quot;#cda2be&quot; face=&quot;Times New Roman&quot;&gt;Spatio-temporal features&lt;/font&gt;" style="text;html=1;align=center;verticalAlign=middle;resizable=0;points=[];autosize=1;strokeColor=none;fillColor=none;" vertex="1" parent="1">
          <mxGeometry x="341" y="112.5" width="140" height="30" as="geometry" />
        </mxCell>
        <mxCell id="gaEPA1DES-zL0HLCs2Ym-50" value="&lt;font face=&quot;Times New Roman&quot; color=&quot;#9933ff&quot;&gt;&lt;b&gt;H&lt;/b&gt;&lt;/font&gt;" style="text;html=1;align=center;verticalAlign=middle;resizable=0;points=[];autosize=1;strokeColor=none;fillColor=none;" vertex="1" parent="1">
          <mxGeometry x="10" y="150" width="30" height="30" as="geometry" />
        </mxCell>
        <mxCell id="gaEPA1DES-zL0HLCs2Ym-51" value="&lt;font face=&quot;Times New Roman&quot; color=&quot;#3333ff&quot;&gt;&lt;b&gt;T&lt;/b&gt;&lt;/font&gt;" style="text;html=1;align=center;verticalAlign=middle;resizable=0;points=[];autosize=1;strokeColor=none;fillColor=none;" vertex="1" parent="1">
          <mxGeometry x="30" y="182.5" width="30" height="30" as="geometry" />
        </mxCell>
        <mxCell id="gaEPA1DES-zL0HLCs2Ym-53" value="" style="endArrow=none;html=1;rounded=0;exitX=0;exitY=0;exitDx=20;exitDy=50;exitPerimeter=0;fillColor=#f8cecc;strokeColor=#b85450;entryX=1;entryY=1;entryDx=0;entryDy=0;entryPerimeter=0;strokeWidth=3;" edge="1" parent="1" source="gaEPA1DES-zL0HLCs2Ym-21" target="gaEPA1DES-zL0HLCs2Ym-21">
          <mxGeometry width="50" height="50" relative="1" as="geometry">
            <mxPoint x="70" y="250" as="sourcePoint" />
            <mxPoint x="120" y="230" as="targetPoint" />
          </mxGeometry>
        </mxCell>
        <mxCell id="gaEPA1DES-zL0HLCs2Ym-55" value="" style="endArrow=none;html=1;rounded=0;exitX=0;exitY=0;exitDx=20;exitDy=50;exitPerimeter=0;entryX=0;entryY=0;entryDx=0;entryDy=30;entryPerimeter=0;fillColor=#1ba1e2;strokeColor=#006EAF;strokeWidth=3;" edge="1" parent="1" source="gaEPA1DES-zL0HLCs2Ym-21" target="gaEPA1DES-zL0HLCs2Ym-21">
          <mxGeometry width="50" height="50" relative="1" as="geometry">
            <mxPoint x="48" y="330" as="sourcePoint" />
            <mxPoint x="80" y="320" as="targetPoint" />
          </mxGeometry>
        </mxCell>
        <mxCell id="gaEPA1DES-zL0HLCs2Ym-56" value="" style="endArrow=none;html=1;rounded=0;entryX=0;entryY=0;entryDx=0;entryDy=30;entryPerimeter=0;exitX=0;exitY=0;exitDx=0;exitDy=0;exitPerimeter=0;fillColor=#6a00ff;strokeColor=#3700CC;strokeWidth=3;" edge="1" parent="1" source="gaEPA1DES-zL0HLCs2Ym-21" target="gaEPA1DES-zL0HLCs2Ym-21">
          <mxGeometry width="50" height="50" relative="1" as="geometry">
            <mxPoint x="-2" y="300" as="sourcePoint" />
            <mxPoint x="48" y="250" as="targetPoint" />
          </mxGeometry>
        </mxCell>
        <mxCell id="gaEPA1DES-zL0HLCs2Ym-64" value="&lt;font face=&quot;Times New Roman&quot; color=&quot;#ff0000&quot;&gt;&lt;b&gt;W&lt;/b&gt;&lt;/font&gt;" style="text;html=1;align=center;verticalAlign=middle;resizable=0;points=[];autosize=1;strokeColor=none;fillColor=none;" vertex="1" parent="1">
          <mxGeometry x="60" y="210" width="40" height="30" as="geometry" />
        </mxCell>
        <mxCell id="gaEPA1DES-zL0HLCs2Ym-65" value="" style="endArrow=none;html=1;rounded=0;exitX=1;exitY=1;exitDx=0;exitDy=0;exitPerimeter=0;fillColor=#f8cecc;strokeColor=#b85450;entryX=0;entryY=0;entryDx=40;entryDy=70;entryPerimeter=0;strokeWidth=3;" edge="1" parent="1" source="gaEPA1DES-zL0HLCs2Ym-33" target="gaEPA1DES-zL0HLCs2Ym-33">
          <mxGeometry width="50" height="50" relative="1" as="geometry">
            <mxPoint x="736" y="252.5" as="sourcePoint" />
            <mxPoint x="766" y="252.5" as="targetPoint" />
          </mxGeometry>
        </mxCell>
        <mxCell id="gaEPA1DES-zL0HLCs2Ym-66" value="" style="endArrow=none;html=1;rounded=0;exitX=1;exitY=1;exitDx=0;exitDy=0;exitPerimeter=0;fillColor=#f8cecc;strokeColor=#b85450;entryX=0;entryY=0;entryDx=40;entryDy=60;entryPerimeter=0;strokeWidth=3;" edge="1" parent="1" source="gaEPA1DES-zL0HLCs2Ym-11" target="gaEPA1DES-zL0HLCs2Ym-11">
          <mxGeometry width="50" height="50" relative="1" as="geometry">
            <mxPoint x="491" y="234.58" as="sourcePoint" />
            <mxPoint x="521" y="234.58" as="targetPoint" />
          </mxGeometry>
        </mxCell>
        <mxCell id="gaEPA1DES-zL0HLCs2Ym-67" value="" style="endArrow=none;html=1;rounded=0;fillColor=#f8cecc;strokeColor=#b85450;entryX=1;entryY=1;entryDx=0;entryDy=0;entryPerimeter=0;strokeWidth=3;exitX=0;exitY=0;exitDx=20;exitDy=40;exitPerimeter=0;" edge="1" parent="1" source="gaEPA1DES-zL0HLCs2Ym-23" target="gaEPA1DES-zL0HLCs2Ym-23">
          <mxGeometry width="50" height="50" relative="1" as="geometry">
            <mxPoint x="290" y="220" as="sourcePoint" />
            <mxPoint x="128" y="230" as="targetPoint" />
          </mxGeometry>
        </mxCell>
        <mxCell id="gaEPA1DES-zL0HLCs2Ym-69" value="" style="endArrow=none;html=1;rounded=0;exitX=0;exitY=0;exitDx=0;exitDy=30;exitPerimeter=0;entryX=0;entryY=0;entryDx=40;entryDy=70;entryPerimeter=0;fillColor=#1ba1e2;strokeColor=#006EAF;strokeWidth=3;" edge="1" parent="1" source="gaEPA1DES-zL0HLCs2Ym-33" target="gaEPA1DES-zL0HLCs2Ym-33">
          <mxGeometry width="50" height="50" relative="1" as="geometry">
            <mxPoint x="114" y="220" as="sourcePoint" />
            <mxPoint x="94" y="200" as="targetPoint" />
          </mxGeometry>
        </mxCell>
        <mxCell id="gaEPA1DES-zL0HLCs2Ym-70" value="" style="endArrow=none;html=1;rounded=0;entryX=0;entryY=0;entryDx=40;entryDy=60;entryPerimeter=0;fillColor=#1ba1e2;strokeColor=#006EAF;strokeWidth=3;" edge="1" parent="1" target="gaEPA1DES-zL0HLCs2Ym-11">
          <mxGeometry width="50" height="50" relative="1" as="geometry">
            <mxPoint x="490" y="170" as="sourcePoint" />
            <mxPoint x="78" y="210" as="targetPoint" />
          </mxGeometry>
        </mxCell>
        <mxCell id="gaEPA1DES-zL0HLCs2Ym-71" value="" style="endArrow=none;html=1;rounded=0;entryX=0;entryY=0;entryDx=20;entryDy=40;entryPerimeter=0;fillColor=#1ba1e2;strokeColor=#006EAF;strokeWidth=3;exitX=0;exitY=0;exitDx=0;exitDy=20;exitPerimeter=0;" edge="1" parent="1" source="gaEPA1DES-zL0HLCs2Ym-23" target="gaEPA1DES-zL0HLCs2Ym-23">
          <mxGeometry width="50" height="50" relative="1" as="geometry">
            <mxPoint x="280" y="210" as="sourcePoint" />
            <mxPoint x="88" y="220" as="targetPoint" />
          </mxGeometry>
        </mxCell>
        <mxCell id="gaEPA1DES-zL0HLCs2Ym-73" value="" style="endArrow=none;html=1;rounded=0;entryX=0;entryY=0;entryDx=0;entryDy=30;entryPerimeter=0;exitX=0;exitY=0;exitDx=0;exitDy=0;exitPerimeter=0;fillColor=#6a00ff;strokeColor=#3700CC;strokeWidth=3;" edge="1" parent="1" source="gaEPA1DES-zL0HLCs2Ym-33" target="gaEPA1DES-zL0HLCs2Ym-33">
          <mxGeometry width="50" height="50" relative="1" as="geometry">
            <mxPoint x="94" y="170" as="sourcePoint" />
            <mxPoint x="94" y="200" as="targetPoint" />
          </mxGeometry>
        </mxCell>
        <mxCell id="gaEPA1DES-zL0HLCs2Ym-74" value="" style="endArrow=none;html=1;rounded=0;exitX=0;exitY=0;exitDx=0;exitDy=0;exitPerimeter=0;fillColor=#6a00ff;strokeColor=#3700CC;strokeWidth=3;" edge="1" parent="1" source="gaEPA1DES-zL0HLCs2Ym-11">
          <mxGeometry width="50" height="50" relative="1" as="geometry">
            <mxPoint x="78" y="180" as="sourcePoint" />
            <mxPoint x="491" y="170" as="targetPoint" />
          </mxGeometry>
        </mxCell>
        <mxCell id="gaEPA1DES-zL0HLCs2Ym-75" value="" style="endArrow=none;html=1;rounded=0;entryX=0;entryY=0;entryDx=0;entryDy=0;entryPerimeter=0;fillColor=#6a00ff;strokeColor=#3700CC;strokeWidth=3;exitX=0;exitY=0;exitDx=0;exitDy=20;exitPerimeter=0;" edge="1" parent="1" source="gaEPA1DES-zL0HLCs2Ym-23" target="gaEPA1DES-zL0HLCs2Ym-23">
          <mxGeometry width="50" height="50" relative="1" as="geometry">
            <mxPoint x="250" y="200" as="sourcePoint" />
            <mxPoint x="88" y="220" as="targetPoint" />
          </mxGeometry>
        </mxCell>
        <mxCell id="gaEPA1DES-zL0HLCs2Ym-76" value="&lt;font face=&quot;Times New Roman&quot;&gt;CNN&lt;/font&gt;" style="verticalLabelPosition=middle;verticalAlign=middle;html=1;shape=trapezoid;perimeter=trapezoidPerimeter;whiteSpace=wrap;size=0.10714285714285714;arcSize=10;flipV=1;labelPosition=center;align=center;direction=north;fillColor=#dae8fc;strokeColor=#6c8ebf;" vertex="1" parent="1">
          <mxGeometry x="621" y="138.5" width="50" height="85" as="geometry" />
        </mxCell>
        <mxCell id="gaEPA1DES-zL0HLCs2Ym-77" value="&lt;font face=&quot;Times New Roman&quot;&gt;CNN&lt;/font&gt;" style="verticalLabelPosition=middle;verticalAlign=middle;html=1;shape=trapezoid;perimeter=trapezoidPerimeter;whiteSpace=wrap;size=0.10714285714285714;arcSize=10;flipV=1;labelPosition=center;align=center;direction=north;fillColor=#dae8fc;strokeColor=#6c8ebf;" vertex="1" parent="1">
          <mxGeometry x="621" y="229" width="50" height="85" as="geometry" />
        </mxCell>
        <mxCell id="gaEPA1DES-zL0HLCs2Ym-37" value="&lt;font face=&quot;Times New Roman&quot;&gt;(Decoder)&lt;/font&gt;" style="text;html=1;align=center;verticalAlign=middle;resizable=0;points=[];autosize=1;strokeColor=none;fillColor=none;" vertex="1" parent="1">
          <mxGeometry x="551" y="240" width="70" height="30" as="geometry" />
        </mxCell>
        <mxCell id="gaEPA1DES-zL0HLCs2Ym-79" value="" style="endArrow=classic;endFill=1;endSize=12;html=1;rounded=0;edgeStyle=orthogonalEdgeStyle;" edge="1" parent="1">
          <mxGeometry width="160" relative="1" as="geometry">
            <mxPoint x="530" y="127.92" as="sourcePoint" />
            <mxPoint x="606" y="89.99999999999999" as="targetPoint" />
            <Array as="points">
              <mxPoint x="530" y="89.92" />
            </Array>
          </mxGeometry>
        </mxCell>
        <mxCell id="gaEPA1DES-zL0HLCs2Ym-80" value="" style="endArrow=classic;endFill=1;endSize=12;html=1;rounded=0;edgeStyle=orthogonalEdgeStyle;" edge="1" parent="1">
          <mxGeometry width="160" relative="1" as="geometry">
            <mxPoint x="530" y="240" as="sourcePoint" />
            <mxPoint x="606" y="275.08" as="targetPoint" />
            <Array as="points">
              <mxPoint x="530" y="275" />
            </Array>
          </mxGeometry>
        </mxCell>
        <mxCell id="gaEPA1DES-zL0HLCs2Ym-84" value="" style="endArrow=classic;html=1;rounded=0;" edge="1" parent="1">
          <mxGeometry width="50" height="50" relative="1" as="geometry">
            <mxPoint x="107" y="177.08" as="sourcePoint" />
            <mxPoint x="155" y="177.08" as="targetPoint" />
            <Array as="points">
              <mxPoint x="107" y="177.08" />
            </Array>
          </mxGeometry>
        </mxCell>
        <mxCell id="gaEPA1DES-zL0HLCs2Ym-86" value="" style="endArrow=classic;html=1;rounded=0;" edge="1" parent="1">
          <mxGeometry width="50" height="50" relative="1" as="geometry">
            <mxPoint x="688" y="177.07999999999998" as="sourcePoint" />
            <mxPoint x="736" y="177.07999999999998" as="targetPoint" />
            <Array as="points">
              <mxPoint x="688" y="177.07999999999998" />
            </Array>
          </mxGeometry>
        </mxCell>
        <mxCell id="gaEPA1DES-zL0HLCs2Ym-87" value="" style="endArrow=classic;html=1;rounded=0;" edge="1" parent="1">
          <mxGeometry width="50" height="50" relative="1" as="geometry">
            <mxPoint x="563" y="177.08" as="sourcePoint" />
            <mxPoint x="611" y="177.08" as="targetPoint" />
            <Array as="points">
              <mxPoint x="563" y="177.08" />
            </Array>
          </mxGeometry>
        </mxCell>
        <mxCell id="gaEPA1DES-zL0HLCs2Ym-88" value="" style="endArrow=classic;html=1;rounded=0;" edge="1" parent="1">
          <mxGeometry width="50" height="50" relative="1" as="geometry">
            <mxPoint x="443" y="177.16000000000003" as="sourcePoint" />
            <mxPoint x="491" y="177.16000000000003" as="targetPoint" />
            <Array as="points">
              <mxPoint x="443" y="177.16000000000003" />
              <mxPoint x="456" y="177.07999999999998" />
            </Array>
          </mxGeometry>
        </mxCell>
        <mxCell id="gaEPA1DES-zL0HLCs2Ym-89" value="" style="endArrow=classic;html=1;rounded=0;" edge="1" parent="1">
          <mxGeometry width="50" height="50" relative="1" as="geometry">
            <mxPoint x="320" y="177.08" as="sourcePoint" />
            <mxPoint x="368" y="177.08" as="targetPoint" />
            <Array as="points">
              <mxPoint x="320" y="177.08" />
            </Array>
          </mxGeometry>
        </mxCell>
        <mxCell id="gaEPA1DES-zL0HLCs2Ym-90" value="" style="endArrow=classic;html=1;rounded=0;" edge="1" parent="1">
          <mxGeometry width="50" height="50" relative="1" as="geometry">
            <mxPoint x="220" y="177.08" as="sourcePoint" />
            <mxPoint x="268" y="177.08" as="targetPoint" />
            <Array as="points">
              <mxPoint x="220" y="177.08" />
            </Array>
          </mxGeometry>
        </mxCell>
        <mxCell id="gaEPA1DES-zL0HLCs2Ym-91" value="" style="endArrow=classic;html=1;rounded=0;" edge="1" parent="1">
          <mxGeometry width="50" height="50" relative="1" as="geometry">
            <mxPoint x="690" y="273" as="sourcePoint" />
            <mxPoint x="735" y="203" as="targetPoint" />
            <Array as="points">
              <mxPoint x="715" y="273" />
              <mxPoint x="715" y="203" />
              <mxPoint x="725" y="203" />
            </Array>
          </mxGeometry>
        </mxCell>
        <mxCell id="gaEPA1DES-zL0HLCs2Ym-93" value="" style="endArrow=classic;html=1;rounded=0;" edge="1" parent="1">
          <mxGeometry width="50" height="50" relative="1" as="geometry">
            <mxPoint x="690" y="90" as="sourcePoint" />
            <mxPoint x="735" y="146" as="targetPoint" />
            <Array as="points">
              <mxPoint x="715" y="90" />
              <mxPoint x="715" y="146" />
              <mxPoint x="725" y="146" />
            </Array>
          </mxGeometry>
        </mxCell>
        <mxCell id="gaEPA1DES-zL0HLCs2Ym-95" value="&lt;font face=&quot;Times New Roman&quot; color=&quot;#9933ff&quot;&gt;&lt;b&gt;H&lt;sup&gt;，&lt;/sup&gt;&lt;/b&gt;&lt;/font&gt;" style="text;html=1;align=center;verticalAlign=middle;resizable=0;points=[];autosize=1;strokeColor=none;fillColor=none;" vertex="1" parent="1">
          <mxGeometry x="240" y="142.5" width="40" height="30" as="geometry" />
        </mxCell>
        <mxCell id="gaEPA1DES-zL0HLCs2Ym-96" value="&lt;font face=&quot;Times New Roman&quot; color=&quot;#9933ff&quot;&gt;&lt;b&gt;H&lt;/b&gt;&lt;/font&gt;" style="text;html=1;align=center;verticalAlign=middle;resizable=0;points=[];autosize=1;strokeColor=none;fillColor=none;" vertex="1" parent="1">
          <mxGeometry x="724" y="150" width="30" height="30" as="geometry" />
        </mxCell>
        <mxCell id="gaEPA1DES-zL0HLCs2Ym-97" value="&lt;font face=&quot;Times New Roman&quot; color=&quot;#9933ff&quot;&gt;&lt;b&gt;H&lt;sup&gt;，&lt;/sup&gt;&lt;/b&gt;&lt;/font&gt;" style="text;html=1;align=center;verticalAlign=middle;resizable=0;points=[];autosize=1;strokeColor=none;fillColor=none;" vertex="1" parent="1">
          <mxGeometry x="460" y="138.5" width="40" height="30" as="geometry" />
        </mxCell>
        <mxCell id="gaEPA1DES-zL0HLCs2Ym-98" value="&lt;font face=&quot;Times New Roman&quot; color=&quot;#3333ff&quot;&gt;&lt;b&gt;T&lt;/b&gt;&lt;/font&gt;" style="text;html=1;align=center;verticalAlign=middle;resizable=0;points=[];autosize=1;strokeColor=none;fillColor=none;" vertex="1" parent="1">
          <mxGeometry x="255" y="182.5" width="30" height="30" as="geometry" />
        </mxCell>
        <mxCell id="gaEPA1DES-zL0HLCs2Ym-99" value="&lt;font face=&quot;Times New Roman&quot; color=&quot;#3333ff&quot;&gt;&lt;b&gt;T&lt;sup&gt;，&lt;/sup&gt;&lt;/b&gt;&lt;/font&gt;" style="text;html=1;align=center;verticalAlign=middle;resizable=0;points=[];autosize=1;strokeColor=none;fillColor=none;" vertex="1" parent="1">
          <mxGeometry x="476" y="182.5" width="40" height="30" as="geometry" />
        </mxCell>
        <mxCell id="gaEPA1DES-zL0HLCs2Ym-101" value="&lt;font face=&quot;Times New Roman&quot; color=&quot;#3333ff&quot;&gt;&lt;b&gt;T&lt;sup&gt;，&lt;/sup&gt;&lt;/b&gt;&lt;/font&gt;" style="text;html=1;align=center;verticalAlign=middle;resizable=0;points=[];autosize=1;strokeColor=none;fillColor=none;" vertex="1" parent="1">
          <mxGeometry x="740" y="190" width="40" height="30" as="geometry" />
        </mxCell>
        <mxCell id="gaEPA1DES-zL0HLCs2Ym-102" value="&lt;font face=&quot;Times New Roman&quot; color=&quot;#ff0000&quot;&gt;&lt;b&gt;W&lt;sup&gt;，&lt;/sup&gt;&lt;/b&gt;&lt;/font&gt;" style="text;html=1;align=center;verticalAlign=middle;resizable=0;points=[];autosize=1;strokeColor=none;fillColor=none;" vertex="1" parent="1">
          <mxGeometry x="275" y="200" width="50" height="30" as="geometry" />
        </mxCell>
        <mxCell id="gaEPA1DES-zL0HLCs2Ym-103" value="&lt;font face=&quot;Times New Roman&quot; color=&quot;#ff0000&quot;&gt;&lt;b&gt;W&lt;/b&gt;&lt;/font&gt;" style="text;html=1;align=center;verticalAlign=middle;resizable=0;points=[];autosize=1;strokeColor=none;fillColor=none;" vertex="1" parent="1">
          <mxGeometry x="782" y="220" width="40" height="30" as="geometry" />
        </mxCell>
        <mxCell id="gaEPA1DES-zL0HLCs2Ym-104" value="&lt;font face=&quot;Times New Roman&quot; color=&quot;#ff0000&quot;&gt;&lt;b&gt;W&lt;sup&gt;，&lt;/sup&gt;&lt;/b&gt;&lt;/font&gt;" style="text;html=1;align=center;verticalAlign=middle;resizable=0;points=[];autosize=1;strokeColor=none;fillColor=none;" vertex="1" parent="1">
          <mxGeometry x="519" y="210" width="50" height="30" as="geometry" />
        </mxCell>
        <mxCell id="gaEPA1DES-zL0HLCs2Ym-105" value="&lt;font face=&quot;Times New Roman&quot;&gt;(Decoder)&lt;/font&gt;" style="text;html=1;align=center;verticalAlign=middle;resizable=0;points=[];autosize=1;strokeColor=none;fillColor=none;" vertex="1" parent="1">
          <mxGeometry x="551" y="60" width="70" height="30" as="geometry" />
        </mxCell>
        <mxCell id="gaEPA1DES-zL0HLCs2Ym-106" value="&lt;font face=&quot;Times New Roman&quot;&gt;(Decoder)&lt;/font&gt;" style="text;html=1;align=center;verticalAlign=middle;resizable=0;points=[];autosize=1;strokeColor=none;fillColor=none;" vertex="1" parent="1">
          <mxGeometry x="551" y="150" width="70" height="30" as="geometry" />
        </mxCell>
      </root>
    </mxGraphModel>
  </diagram>
</mxfile>
